<svg width="18" height="25" viewBox="0 0 18 25" fill="none" xmlns="http://www.w3.org/2000/svg">
<path d="M2.25 8.85938C2.25 10.1719 2.67188 11.7188 3.46875 13.3594C4.21875 15 5.25 16.6406 6.32812 18.1406C7.26562 19.4531 8.25 20.5781 9 21.4688C9.79688 20.5781 10.7344 19.4531 11.6719 18.1406C12.75 16.6406 13.7812 15 14.5781 13.3594C15.3281 11.7188 15.75 10.1719 15.75 8.85938C15.75 5.25 12.7969 2.25 9 2.25C5.25 2.25 2.25 5.25 2.25 8.85938ZM18 8.85938C18 14.0625 13.125 20.2031 10.5469 23.1094C10.0781 23.6719 9.65625 24.0938 9.375 24.375C9.14062 24.6094 9 24.75 9 24.75C9 24.75 8.85938 24.6094 8.625 24.375C8.34375 24.0938 7.92188 23.625 7.45312 23.1094C4.875 20.2031 0 14.0625 0 8.85938C0 3.9375 4.03125 0 9 0C13.9688 0 18 3.9375 18 8.85938ZM10.5 9C10.5 8.15625 9.84375 7.5 9 7.5C8.15625 7.5 7.5 8.15625 7.5 9C7.5 9.84375 8.15625 10.5 9 10.5C9.84375 10.5 10.5 9.84375 10.5 9ZM5.25 9C5.25 6.9375 6.9375 5.25 9 5.25C11.0625 5.25 12.75 6.9375 12.75 9C12.75 11.0625 11.0625 12.75 9 12.75C6.9375 12.75 5.25 11.0625 5.25 9Z" fill="#00A63E" style="fill:#00A63E;fill:color(display-p3 0.0000 0.6510 0.2431);fill-opacity:1;"/>
</svg>
